<?xml version="1.0" encoding="UTF-8" standalone="no"?>
<svg
   width="956pt"
   height="436pt"
   viewBox="0 0 956 436"
   version="1.1"
   id="svg12"
   sodipodi:docname="20230201111321!Logo-cash-assurance-720pixels.svg"
   inkscape:version="1.3 (0e150ed6c4, 2023-07-21)"
   xmlns:inkscape="http://www.inkscape.org/namespaces/inkscape"
   xmlns:sodipodi="http://sodipodi.sourceforge.net/DTD/sodipodi-0.dtd"
   xmlns="http://www.w3.org/2000/svg"
   xmlns:svg="http://www.w3.org/2000/svg">
  <defs
     id="defs12" />
  <sodipodi:namedview
     id="namedview12"
     pagecolor="#ffffff"
     bordercolor="#666666"
     borderopacity="1.0"
     inkscape:showpageshadow="2"
     inkscape:pageopacity="0.0"
     inkscape:pagecheckerboard="0"
     inkscape:deskcolor="#d1d1d1"
     inkscape:document-units="pt"
     showgrid="false"
     inkscape:zoom="1.1006799"
     inkscape:cx="637.33333"
     inkscape:cy="290.27512"
     inkscape:window-width="1920"
     inkscape:window-height="1017"
     inkscape:window-x="-8"
     inkscape:window-y="-8"
     inkscape:window-maximized="1"
     inkscape:current-layer="#bf0d0dff" />
  <g
     id="#bf0d0dff">
    <path
       fill="#bf0d0d"
       opacity="1.00"
       d=" M 191.51 0.00 L 209.26 0.00 C 222.92 0.49 236.58 1.44 250.09 3.60 C 244.05 26.16 237.99 48.70 231.91 71.25 C 207.81 68.45 183.26 68.90 159.43 73.63 C 136.54 78.19 114.03 88.62 98.69 106.65 C 86.14 121.05 79.19 139.95 78.84 158.99 C 78.74 169.05 82.55 179.17 89.67 186.35 C 98.16 194.99 109.80 199.74 121.46 202.32 C 125.91 203.29 130.44 203.99 135.00 204.01 C 161.85 203.98 188.69 204.02 215.53 203.99 C 224.94 168.97 234.40 133.97 243.82 98.97 C 248.06 83.11 254.89 67.87 264.55 54.57 C 280.32 32.61 303.86 17.01 329.39 8.68 C 344.94 3.52 361.24 0.72 377.59 0.00 L 390.33 0.00 C 411.33 0.51 433.19 3.41 451.47 14.49 C 464.20 22.07 474.00 34.42 478.19 48.66 C 482.18 62.07 482.29 76.56 479.07 90.14 C 468.90 128.05 458.70 165.96 448.53 203.87 C 473.00 203.80 497.48 204.03 521.95 203.76 C 529.05 201.97 535.92 198.26 540.77 192.68 C 545.40 187.37 547.06 179.99 546.22 173.09 C 545.16 164.00 541.19 155.46 536.05 147.98 C 525.39 133.18 518.30 115.31 518.12 96.92 C 519.98 72.67 529.75 48.49 547.60 31.60 C 569.65 10.52 600.59 1.21 630.54 0.00 L 703.68 0.00 C 697.81 21.34 692.17 42.75 686.39 64.11 C 669.92 64.16 653.45 64.09 636.98 64.14 C 627.72 64.28 618.00 66.59 610.94 72.90 C 602.54 80.26 600.06 92.39 601.47 103.07 C 603.38 117.03 609.72 129.99 617.50 141.59 C 624.62 152.52 628.61 165.85 627.16 178.92 C 624.24 197.60 616.48 215.68 604.05 230.01 C 585.45 251.59 557.95 263.68 530.24 268.15 C 525.53 268.87 520.79 269.50 516.02 269.51 C 461.13 269.49 406.23 269.51 351.34 269.50 C 357.05 247.66 362.78 225.83 368.50 204.01 C 350.56 203.99 332.61 204.01 314.67 203.99 C 320.54 182.16 326.46 160.34 332.33 138.51 C 350.27 138.47 368.22 138.52 386.16 138.49 C 389.50 126.35 392.79 114.19 396.13 102.05 C 398.23 95.40 399.65 87.93 396.62 81.33 C 393.90 75.07 387.41 71.48 380.96 70.23 C 368.57 67.83 355.09 69.51 344.29 76.30 C 332.55 83.76 323.52 95.90 320.74 109.63 C 306.53 162.93 292.29 216.21 278.08 269.50 C 222.71 269.49 167.35 269.54 111.99 269.47 C 87.42 268.01 62.39 262.16 41.70 248.30 C 25.62 237.62 13.24 221.66 6.64 203.53 C 2.82 193.35 0.84 182.56 0.00 171.75 L 0.00 161.44 C 1.84 137.18 7.20 112.93 17.99 91.01 C 30.83 64.41 52.22 42.27 77.93 27.86 C 112.37 8.38 152.35 1.13 191.51 0.00 Z"
       id="path1"
       style="fill:#971d20;fill-opacity:1" />
    <path
       fill="#bf0d0d"
       opacity="1.00"
       d=" M 722.96 0.00 L 802.94 0.00 C 793.78 33.97 784.83 68.00 775.75 101.99 C 799.92 102.01 824.10 102.00 848.27 102.00 C 857.40 68.00 866.41 33.97 875.62 0.00 L 956.00 0.00 L 956.00 1.15 L 955.70 0.01 C 954.22 4.02 953.27 8.19 952.15 12.30 C 929.06 98.08 906.00 183.86 882.90 269.63 C 856.25 269.62 829.60 269.62 802.95 269.63 C 812.15 235.62 821.43 201.63 830.64 167.62 C 806.45 167.62 782.26 167.63 758.07 167.62 C 748.82 201.61 739.61 235.61 730.38 269.61 C 703.73 269.63 677.07 269.62 650.42 269.62 C 674.60 179.75 698.69 89.85 722.96 0.00 Z"
       id="path2"
       style="fill:#971d20;fill-opacity:1" />
  </g>
  <g
     id="#000000ff">
    <path
       fill="#000000"
       opacity="1.00"
       d=" M 129.41 360.37 C 134.94 355.28 142.73 353.67 150.02 353.27 C 159.79 353.12 169.77 353.74 179.07 356.95 C 180.81 361.09 181.37 365.74 182.70 370.07 C 171.97 365.10 159.54 362.79 147.96 365.85 C 142.62 367.09 140.24 375.67 145.46 378.56 C 154.32 383.30 164.92 383.44 173.79 388.18 C 178.91 390.83 183.45 395.26 184.44 401.15 C 185.82 409.69 184.99 419.39 179.33 426.33 C 175.36 431.24 169.08 433.43 163.04 434.43 C 150.99 436.60 138.47 434.93 126.95 431.05 C 125.89 426.85 124.80 422.66 123.75 418.47 C 134.17 423.25 146.08 426.37 157.48 423.57 C 161.97 422.66 164.87 418.38 165.21 414.00 C 165.74 409.48 165.23 403.74 160.90 401.17 C 151.10 395.95 138.99 396.78 129.78 390.22 C 124.87 386.90 123.51 380.56 123.47 375.00 C 123.32 369.59 125.27 363.99 129.41 360.37 Z"
       id="path3" />
    <path
       fill="#000000"
       opacity="1.00"
       d=" M 218.52 361.49 C 223.67 355.87 231.55 353.94 238.89 353.35 C 249.22 352.93 259.73 353.75 269.61 356.97 C 270.70 361.34 271.81 365.70 272.95 370.07 C 262.36 365.13 250.16 362.92 238.68 365.68 C 232.85 366.68 230.28 376.01 236.08 378.81 C 246.72 384.15 259.96 383.58 269.24 391.75 C 275.72 397.14 275.92 406.49 274.76 414.18 C 273.78 422.23 268.50 429.88 260.63 432.49 C 246.59 437.29 231.06 435.70 217.19 431.04 C 216.15 426.84 215.05 422.67 214.00 418.48 C 224.55 423.30 236.67 426.48 248.17 423.43 C 252.47 422.37 255.13 418.16 255.46 413.92 C 255.96 409.37 255.43 403.57 250.99 401.07 C 241.16 395.96 229.08 396.74 219.90 390.13 C 215.33 387.01 213.92 381.18 213.74 375.97 C 213.43 370.77 214.87 365.32 218.52 361.49 Z"
       id="path4" />
    <path
       fill="#000000"
       opacity="1.00"
       d=" M 877.06 361.92 C 882.21 355.95 890.37 353.91 897.93 353.34 C 908.23 352.95 918.71 353.74 928.55 356.99 C 929.60 361.36 930.76 365.71 931.88 370.07 C 921.32 365.15 909.16 362.93 897.71 365.65 C 893.27 366.46 890.66 371.77 892.11 375.86 C 894.17 379.63 898.84 380.45 902.60 381.66 C 911.12 384.35 920.60 385.33 927.67 391.33 C 933.63 395.84 934.79 404.00 934.08 410.97 C 933.65 418.09 930.85 425.51 924.84 429.74 C 918.17 434.32 909.78 434.95 901.96 435.48 C 893.22 435.21 884.39 434.04 876.13 431.05 C 875.06 426.85 873.98 422.66 872.93 418.47 C 883.49 423.32 895.65 426.49 907.17 423.41 C 911.82 422.27 914.37 417.43 914.48 412.92 C 914.75 408.68 914.10 403.39 909.99 401.11 C 900.36 396.06 888.62 396.73 879.46 390.57 C 875.45 388.14 873.48 383.52 872.94 379.04 C 872.03 373.12 872.94 366.52 877.06 361.92 Z"
       id="path5" />
    <path
       fill="#000000"
       opacity="1.00"
       d=" M 49.07 354.00 C 55.96 354.01 62.85 353.98 69.75 354.02 C 79.20 380.85 88.72 407.66 98.17 434.49 C 92.01 434.51 85.84 434.50 79.67 434.50 C 77.30 428.13 74.94 421.76 72.58 415.38 C 61.88 415.37 51.19 415.37 40.49 415.38 C 38.28 421.75 36.10 428.13 33.90 434.50 C 29.63 434.50 25.36 434.50 21.10 434.50 C 30.43 407.67 39.72 380.82 49.07 354.00 M 44.85 403.62 C 52.82 403.62 60.78 403.64 68.75 403.61 C 64.66 392.28 60.66 380.93 56.53 369.62 C 52.62 380.95 48.71 392.27 44.85 403.62 Z"
       id="path6" />
    <path
       fill="#000000"
       opacity="1.00"
       d=" M 306.88 354.01 C 313.17 353.99 319.46 353.99 325.75 354.01 C 325.74 370.68 325.76 387.34 325.74 404.01 C 325.78 408.87 324.78 414.14 327.26 418.61 C 329.16 422.19 333.10 424.12 336.98 424.64 C 341.57 425.27 346.62 425.16 350.67 422.64 C 354.19 420.39 355.71 416.07 355.70 412.04 C 355.55 392.70 355.65 373.35 355.63 354.01 C 360.79 353.99 365.95 353.99 371.12 354.01 C 371.13 372.67 371.12 391.32 371.13 409.98 C 371.18 416.17 369.84 422.79 365.42 427.41 C 360.38 432.99 352.67 434.40 345.69 436.00 L 332.47 436.00 C 325.83 434.61 318.72 433.22 313.68 428.30 C 307.89 423.31 307.13 415.08 306.89 407.94 C 306.85 389.96 306.88 371.98 306.88 354.01 Z"
       id="path7" />
    <path
       fill="#000000"
       opacity="1.00"
       d=" M 406.50 354.00 C 419.34 354.03 432.19 353.92 445.04 354.06 C 452.78 354.23 461.47 356.01 466.42 362.53 C 471.27 369.18 471.75 378.43 469.02 386.02 C 465.61 394.40 456.22 398.00 447.87 399.10 C 455.49 410.89 463.12 422.68 470.72 434.49 C 463.55 434.51 456.38 434.50 449.21 434.50 C 441.10 420.29 433.00 406.07 424.89 391.85 C 424.86 406.07 424.88 420.28 424.87 434.50 C 418.75 434.50 412.62 434.50 406.50 434.50 C 406.49 407.67 406.50 380.84 406.50 354.00 M 424.88 364.26 C 424.87 373.17 424.87 382.08 424.88 391.00 C 430.24 390.89 435.60 391.16 440.96 391.07 C 445.55 390.92 450.62 388.87 452.51 384.38 C 455.62 377.25 452.85 366.69 444.63 364.60 C 438.09 363.81 431.46 364.45 424.88 364.26 Z"
       id="path8" />
    <path
       fill="#000000"
       opacity="1.00"
       d=" M 524.24 354.00 C 531.13 354.00 538.02 353.99 544.91 354.01 C 554.40 380.84 563.90 407.66 573.36 434.49 C 567.19 434.51 561.03 434.50 554.86 434.50 C 552.48 428.13 550.14 421.75 547.76 415.38 C 537.06 415.38 526.36 415.36 515.66 415.39 C 513.48 421.76 511.30 428.14 509.08 434.50 C 504.82 434.50 500.56 434.51 496.31 434.49 C 505.60 407.65 514.93 380.83 524.24 354.00 M 520.02 403.62 C 527.99 403.63 535.95 403.62 543.92 403.62 C 539.87 392.27 535.83 380.91 531.72 369.58 C 527.83 380.93 523.93 392.27 520.02 403.62 Z"
       id="path9" />
    <path
       fill="#000000"
       opacity="1.00"
       d=" M 602.50 354.00 C 610.08 353.99 617.67 354.00 625.25 354.00 C 634.60 373.15 643.91 392.32 653.24 411.47 C 653.26 392.40 653.24 373.33 653.25 354.25 C 657.67 354.25 662.09 354.24 666.51 354.27 C 666.50 381.09 666.50 407.91 666.51 434.73 C 659.31 434.77 652.12 434.74 644.94 434.75 C 635.09 414.48 625.36 394.15 615.51 373.88 C 615.48 394.09 615.52 414.29 615.50 434.50 C 611.16 434.50 606.83 434.50 602.50 434.50 C 602.49 407.67 602.50 380.83 602.50 354.00 Z"
       id="path10" />
    <path
       fill="#000000"
       opacity="1.00"
       d=" M 707.93 361.90 C 715.03 354.98 725.49 353.37 735.02 353.60 C 742.01 353.59 748.93 354.88 755.67 356.65 C 756.79 361.23 757.98 365.78 759.13 370.36 C 750.93 365.55 741.18 362.96 731.71 364.74 C 727.85 365.54 724.21 367.86 722.39 371.43 C 718.13 379.58 717.96 389.08 718.39 398.06 C 718.77 405.30 719.33 413.06 723.75 419.13 C 726.01 422.53 730.06 424.45 734.09 424.60 C 742.54 424.79 751.39 423.09 758.29 417.94 C 757.90 422.11 757.54 426.28 757.20 430.45 C 745.44 436.17 731.52 436.65 719.07 433.01 C 712.50 431.07 706.66 426.60 703.60 420.41 C 698.79 411.08 697.92 400.27 698.09 389.94 C 698.70 380.03 700.48 369.13 707.93 361.90 Z"
       id="path11" />
    <path
       fill="#000000"
       opacity="1.00"
       d=" M 789.63 354.01 C 808.00 354.00 826.37 353.99 844.75 354.01 C 844.75 357.42 844.74 360.83 844.74 364.24 C 832.54 364.26 820.33 364.25 808.13 364.25 C 808.12 372.00 808.11 379.75 808.14 387.50 C 818.29 387.49 828.45 387.50 838.61 387.50 C 838.62 390.87 838.62 394.24 838.62 397.62 C 828.45 397.63 818.29 397.62 808.13 397.63 C 808.12 406.54 808.12 415.46 808.13 424.37 C 820.50 424.39 832.88 424.35 845.25 424.39 C 845.25 427.75 845.25 431.12 845.25 434.49 C 826.71 434.51 808.16 434.51 789.62 434.49 C 789.62 407.66 789.62 380.83 789.63 354.01 Z"
       id="path12" />
  </g>
</svg>
